<?xml version="1.0" standalone="no"?>
<!DOCTYPE svg PUBLIC "-//W3C//DTD SVG 20010904//EN"
 "http://www.w3.org/TR/2001/REC-SVG-20010904/DTD/svg10.dtd">
<svg version="1.0" xmlns="http://www.w3.org/2000/svg"
 width="114.000000pt" height="114.000000pt" viewBox="0 0 114.000000 114.000000"
 preserveAspectRatio="xMidYMid meet">
<metadata>
Created by potrace 1.14, written by Peter Selinger 2001-2017
</metadata>
<g transform="translate(0.000000,114.000000) scale(0.100000,-0.100000)"
fill="#000000" stroke="none">
<path d="M470 1125 c-93 -19 -175 -53 -226 -95 -17 -14 -41 -32 -53 -40 -47
-31 -129 -158 -157 -242 -28 -85 -36 -202 -21 -292 30 -165 174 -339 342 -409
70 -29 200 -51 253 -43 20 3 54 9 74 12 92 13 235 95 306 174 39 43 88 123
107 175 22 58 43 175 40 214 -15 155 -47 243 -124 341 -130 163 -343 244 -541
205z m50 -25 c-20 -13 -40 -13 -40 0 0 6 12 10 28 10 21 0 24 -2 12 -10z m144
1 c4 -5 -5 -8 -19 -6 -35 3 -44 15 -12 15 14 0 28 -4 31 -9z m-70 -7 c15 -6
15 -8 -1 -19 -12 -9 -23 -10 -40 -2 -40 18 -2 37 41 21z m-131 -30 c-20 -15
-63 -19 -63 -5 0 12 51 29 68 23 9 -3 8 -8 -5 -18z m-79 6 c-11 -11 -54 -22
-54 -14 0 5 40 22 55 23 5 1 5 -3 -1 -9z m346 -5 c10 -13 9 -15 -12 -15 -13 0
-33 7 -44 15 -18 14 -17 14 12 15 17 0 37 -7 44 -15z m48 9 c12 -4 22 -10 22
-14 0 -11 -20 -7 -45 8 -22 13 -13 15 23 6z m-240 -12 c10 -7 8 -12 -6 -26
-16 -13 -25 -15 -47 -6 -27 10 -27 11 -9 25 21 16 43 19 62 7z m126 -7 c18
-14 18 -15 -9 -25 -22 -9 -31 -7 -47 6 -32 30 19 47 56 19z m-321 -33 c-6 -16
-5 -15 14 1 20 17 63 24 63 9 0 -5 -6 -17 -14 -28 -12 -16 -19 -17 -43 -8 -15
6 -40 7 -56 3 -30 -8 -34 -3 -12 21 20 22 56 24 48 2z m256 5 c18 -22 -21 -52
-48 -37 -24 12 -26 21 -9 38 16 16 43 15 57 -1z m177 -1 c21 -22 17 -33 -12
-32 -15 1 -33 10 -40 21 -12 19 -11 21 12 23 14 1 32 -5 40 -12z m65 -5 c13
-11 21 -22 18 -25 -10 -10 -56 11 -62 28 -9 22 15 20 44 -3z m-352 -7 c2 -2
-1 -15 -9 -28 -11 -21 -16 -23 -36 -14 -26 12 -30 28 -12 46 10 10 44 8 57 -4z
m220 -8 l22 -24 -28 -9 c-24 -9 -31 -7 -46 13 -18 24 -18 24 5 33 13 6 23 10
24 10 0 1 11 -10 23 -23z m-451 -6 c-7 -11 -20 -20 -28 -20 -11 1 -8 6 9 20
30 25 34 25 19 0z m657 -10 c3 -6 -1 -10 -9 -10 -8 0 -20 9 -26 21 -11 19 -10
20 9 10 11 -6 23 -16 26 -21z m-372 -44 c-10 -11 -18 -22 -19 -24 -1 -1 -12 6
-25 17 -23 19 -23 20 -5 40 17 19 20 19 42 4 24 -15 24 -16 7 -37z m95 -8
c-22 -17 -24 -17 -40 5 -17 21 -17 23 4 40 22 18 23 18 41 -4 18 -22 18 -23
-5 -41z m-332 26 c-3 -9 -6 -19 -6 -24 0 -4 -14 -10 -30 -12 -27 -4 -30 -2
-24 16 8 25 22 36 48 36 12 0 16 -5 12 -16z m74 5 c0 -27 -20 -46 -45 -42 -28
6 -29 7 -15 34 11 20 60 27 60 8z m438 -14 c9 -20 9 -25 -2 -25 -8 0 -21 -2
-28 -5 -15 -6 -42 38 -31 49 16 15 51 4 61 -19z m66 3 c19 -27 13 -38 -17 -30
-24 6 -37 19 -37 40 0 20 38 14 54 -10z m-450 1 c21 -10 23 -15 14 -35 -12
-27 -27 -30 -50 -11 -12 9 -14 18 -7 35 10 26 10 26 43 11z m312 -15 c11 -44
-35 -61 -54 -20 -9 20 -7 25 11 34 32 16 36 14 43 -14z m-518 -6 c-8 -11 -24
-25 -36 -29 -21 -8 -22 -7 -11 14 14 25 28 37 48 37 11 0 11 -4 -1 -22z m716
6 c9 -8 16 -22 16 -30 0 -20 -35 -1 -50 26 -13 25 11 28 34 4z m-354 -14 c8
-14 8 -26 0 -40 -14 -27 -28 -25 -42 5 -8 19 -8 28 2 40 17 20 27 19 40 -5z
m-82 -16 c6 -3 -10 -54 -17 -54 -3 0 -15 7 -25 15 -17 13 -18 18 -7 41 10 23
14 24 29 13 9 -7 18 -14 20 -15z m171 4 c6 -16 4 -28 -7 -40 -20 -24 -27 -23
-40 7 -10 21 -8 27 11 40 27 19 26 19 36 -7z m-534 -28 c-10 -11 -20 -18 -23
-15 -3 3 3 14 13 25 10 11 20 18 23 15 3 -3 -3 -14 -13 -25z m866 -1 c10 -19
9 -20 -10 -9 -12 6 -21 18 -21 26 0 19 16 10 31 -17z m-724 4 c-4 -29 -15 -40
-37 -39 -37 2 -24 56 14 56 19 0 25 -5 23 -17z m71 -10 c-2 -22 -8 -28 -28
-28 -20 0 -26 6 -28 28 -3 24 0 27 28 27 28 0 31 -3 28 -27z m480 0 c-2 -20
-9 -27 -30 -30 -25 -3 -28 -1 -28 27 0 27 3 30 31 30 27 0 30 -3 27 -27z m70
-6 c3 -24 0 -27 -20 -23 -13 3 -25 5 -28 5 -3 1 -6 13 -6 27 -2 22 2 25 25 22
20 -2 27 -9 29 -31z m-700 -32 c-2 -1 -13 -6 -25 -9 -20 -6 -23 -4 -23 17 0
15 8 28 23 34 19 9 22 7 25 -14 2 -14 2 -26 0 -28z m206 42 c12 -9 16 -20 11
-39 -6 -23 -9 -24 -31 -14 -23 10 -33 44 -17 59 9 10 17 9 37 -6z m354 -15 c3
-22 -30 -48 -48 -37 -16 10 -11 43 8 54 23 14 36 9 40 -17z m200 5 c6 -5 12
-18 12 -28 0 -38 -43 -19 -54 23 -5 23 -4 27 11 21 10 -3 24 -10 31 -16z
m-418 -47 c-11 -20 -14 -21 -27 -7 -11 10 -13 24 -9 43 l7 27 21 -20 c17 -17
18 -24 8 -43z m74 34 c6 -24 -7 -54 -24 -54 -14 0 -19 42 -7 61 16 26 24 24
31 -7z m-142 -45 c-5 -32 -9 -34 -27 -19 -8 7 -15 26 -15 42 0 29 1 30 23 15
15 -10 21 -22 19 -38z m218 25 c0 -23 -23 -53 -40 -54 -13 0 -8 46 7 62 23 25
33 22 33 -8z m-556 -6 c-8 -26 -37 -51 -42 -37 -5 13 26 59 39 59 6 0 8 -9 3
-22z m884 -12 c8 -15 12 -30 9 -33 -8 -8 -47 35 -47 53 0 23 23 11 38 -20z
m-745 -8 c8 -28 1 -38 -27 -38 -24 0 -37 23 -29 48 8 21 50 14 56 -10z m71 -4
c9 -33 4 -38 -29 -30 -35 9 -36 56 -1 56 17 0 26 -7 30 -26z m486 12 c0 -30
-13 -46 -36 -46 -18 0 -24 5 -24 23 0 13 3 27 7 30 12 13 53 7 53 -7z m70 -16
c0 -27 -3 -30 -30 -30 -26 0 -29 3 -27 30 2 26 6 30 30 30 23 0 27 -4 27 -30z
m-696 -12 c5 -22 2 -28 -23 -36 -27 -10 -29 -8 -33 19 -4 24 0 30 21 37 14 5
26 9 27 8 1 0 4 -13 8 -28z m207 -11 c8 -29 0 -33 -32 -17 -11 6 -19 21 -19
35 0 21 3 23 22 16 12 -4 25 -20 29 -34z m164 -5 c-3 -8 -5 -18 -5 -23 0 -5
-4 -9 -9 -9 -14 0 -23 37 -15 62 6 21 7 21 20 3 8 -11 12 -26 9 -33z m180 22
c-3 -26 -19 -44 -42 -44 -20 0 -15 28 7 50 27 27 39 25 35 -6z m213 -8 c2 -10
1 -24 -2 -32 -9 -24 -56 4 -51 30 2 12 4 24 4 28 2 14 46 -10 49 -26z m-448
-34 c0 -14 -4 -21 -11 -17 -15 10 -30 55 -23 67 10 16 34 -20 34 -50z m96 -10
c-15 -15 -16 -14 -16 14 0 16 6 36 13 43 10 10 13 7 15 -15 2 -15 -3 -34 -12
-42z m453 8 c0 -11 -3 -10 -14 4 -8 11 -15 27 -15 35 0 11 4 10 15 -5 8 -10
14 -26 14 -34z m-996 20 c-6 -22 -23 -38 -23 -21 0 17 12 41 20 41 5 0 6 -9 3
-20z m63 -12 c6 -20 -15 -48 -38 -48 -12 0 -9 45 4 58 17 17 26 15 34 -10z
m334 -18 c0 -11 -4 -20 -8 -20 -14 0 -32 24 -32 42 0 16 3 17 20 8 11 -6 20
-20 20 -30z m220 26 c0 -8 -9 -24 -20 -37 l-19 -24 -1 26 c0 24 16 49 32 49 4
0 8 -6 8 -14z m321 4 c17 -10 28 -60 13 -60 -20 0 -44 24 -44 45 0 28 3 29 31
15z m-720 -31 c11 -22 0 -38 -27 -39 -18 0 -37 28 -30 45 8 22 44 18 57 -6z
m55 13 c6 -4 14 -17 18 -29 6 -19 4 -21 -16 -18 -22 5 -48 30 -48 47 0 10 31
10 46 0z m465 -14 c-9 -25 -61 -45 -61 -23 0 20 28 45 50 45 16 0 18 -4 11
-22z m74 12 c8 -13 -13 -50 -28 -50 -24 0 -36 16 -30 38 6 23 46 31 58 12z
m-661 -37 c6 -18 2 -24 -20 -29 -43 -11 -62 35 -21 53 25 12 32 8 41 -24z
m731 -1 c-3 -7 -5 -18 -5 -23 0 -12 -31 -11 -49 0 -12 8 -13 14 -3 35 10 23
14 25 37 14 16 -7 24 -17 20 -26z m-543 16 c8 -7 18 -21 21 -30 5 -14 2 -16
-15 -9 -12 4 -28 18 -36 29 -13 19 -13 22 0 22 8 0 21 -6 30 -12z m138 -31 c0
-10 -4 -15 -10 -12 -5 3 -10 18 -10 33 0 21 2 24 10 12 5 -8 10 -23 10 -33z
m31 -10 c-8 -8 -11 -4 -11 14 0 33 14 47 18 19 2 -12 -1 -27 -7 -33z m159 45
c0 -13 -24 -39 -42 -45 -13 -5 -16 -2 -11 11 10 28 53 56 53 34z m-660 -30 c0
-9 -7 -25 -14 -35 -13 -16 -14 -16 -19 4 -6 23 12 61 25 53 4 -3 8 -13 8 -22z
m430 -17 c0 -17 -2 -17 -10 -5 -5 8 -10 24 -10 35 0 17 2 17 10 5 5 -8 10 -24
10 -35z m107 -3 c-17 -17 -18 -5 -1 33 8 19 9 19 12 1 2 -10 -3 -25 -11 -34z
m453 -5 c0 -29 -1 -30 -15 -11 -8 10 -15 30 -15 43 0 20 2 21 15 11 8 -7 15
-26 15 -43z m-62 -19 c-9 -26 -11 -27 -33 -12 -20 13 -22 18 -12 44 10 27 12
28 32 12 19 -14 21 -21 13 -44z m-850 28 c9 -20 7 -25 -14 -37 -21 -11 -27
-11 -34 1 -14 22 -12 38 8 49 24 15 28 14 40 -13z m325 -16 c5 -18 3 -19 -9
-9 -8 7 -20 21 -25 31 -9 17 -8 18 9 9 11 -6 22 -20 25 -31z m183 14 c-3 -9
-6 -18 -6 -20 0 -2 -7 -4 -15 -4 -13 0 -14 4 -5 20 13 24 35 27 26 4z m-339
-13 c11 -17 9 -21 -8 -26 -22 -7 -63 21 -53 36 10 16 49 9 61 -10z m61 7 c17
-17 15 -28 -6 -28 -19 0 -42 18 -42 32 0 12 35 9 48 -4z m392 4 c0 -16 -24
-32 -49 -32 -23 0 -24 1 -6 20 18 20 55 28 55 12z m74 -1 c8 -13 -24 -36 -51
-36 -26 -1 -27 0 -13 26 11 19 54 26 64 10z m-596 -22 c16 -25 15 -25 -20 -34
-21 -5 -29 -2 -38 14 -9 18 -8 23 12 31 32 12 32 12 46 -11z m440 2 c-7 -11
-21 -22 -33 -25 -15 -4 -13 0 10 19 36 30 39 31 23 6z m213 9 c16 -9 17 -14 6
-30 -13 -21 -33 -25 -55 -11 -12 7 -12 12 -1 30 16 24 22 25 50 11z m-817 -71
c-18 -20 -18 -20 -30 3 -10 18 -9 27 4 46 l15 24 15 -27 c12 -24 12 -29 -4
-46z m366 40 c0 -6 -7 -6 -20 1 -11 6 -20 15 -20 21 0 6 7 6 20 -1 11 -6 20
-15 20 -21z m-429 -26 c-9 -15 -10 -12 -10 17 0 29 1 32 10 18 7 -12 7 -24 0
-35z m1025 23 c3 -14 2 -32 -3 -41 -8 -14 -11 -14 -26 2 -18 21 -13 63 9 63 7
0 16 -11 20 -24z m44 -14 c0 -21 -2 -24 -10 -12 -13 20 -13 53 0 45 6 -3 10
-18 10 -33z m-909 5 c15 -21 15 -23 -6 -39 -21 -16 -24 -16 -40 2 -17 19 -17
21 0 40 23 25 26 25 46 -3z m793 -6 c3 -5 -2 -18 -12 -30 -16 -20 -18 -20 -40
-3 -21 16 -21 19 -7 40 13 17 20 20 35 12 10 -6 21 -14 24 -19z m-603 -7 c9
-11 6 -14 -19 -14 -32 0 -63 25 -40 32 19 7 45 -2 59 -18z m58 2 c9 -11 6 -12
-14 -8 -14 2 -28 8 -31 13 -9 15 33 10 45 -5z m276 2 c-31 -19 -49 -20 -34 -2
6 8 21 14 33 14 21 -1 21 -1 1 -12z m85 -3 c-7 -8 -26 -15 -42 -15 -26 0 -29
2 -18 15 7 8 26 15 42 15 26 0 29 -2 18 -15z m-494 -10 c16 -13 17 -16 4 -25
-21 -13 -33 -12 -56 5 -16 13 -17 16 -4 25 21 13 33 12 56 -5z m559 9 c14 -6
14 -8 -1 -25 -20 -22 -37 -24 -53 -6 -20 25 16 45 54 31z m-809 -70 c-4 -14
-11 -22 -16 -19 -11 7 -13 58 -3 69 12 11 25 -24 19 -50z m94 17 c0 -3 -7 -15
-15 -25 -12 -16 -17 -17 -30 -6 -18 15 -20 41 -3 58 9 9 16 8 30 -5 10 -9 18
-19 18 -22z m872 -16 c-14 -30 -28 -32 -42 -4 -9 16 -8 25 6 40 16 17 19 18
33 5 12 -12 12 -20 3 -41z m62 -5 c-8 -19 -10 -19 -20 -3 -8 12 -8 26 -2 43
l10 25 11 -22 c6 -15 7 -31 1 -43z m-839 34 c20 -15 20 -15 1 -30 -25 -18 -28
-17 -52 1 -19 15 -19 15 0 30 24 18 26 18 51 -1z m190 6 c3 -6 -5 -10 -19 -10
-14 0 -28 5 -31 10 -3 6 5 10 19 10 14 0 28 -4 31 -10z m300 0 c-3 -5 -17 -10
-31 -10 -14 0 -22 4 -19 10 3 6 17 10 31 10 14 0 22 -4 19 -10z m191 -5 c19
-15 19 -15 0 -30 -11 -8 -23 -15 -26 -15 -3 0 -15 7 -26 15 -19 15 -19 15 0
30 11 8 23 15 26 15 3 0 15 -7 26 -15z m-562 -1 c9 -3 16 -10 16 -14 0 -13
-40 -19 -63 -10 -22 8 -22 8 3 18 14 6 26 11 27 11 1 1 8 -2 17 -5z m433 -5
l28 -11 -23 -9 c-13 -5 -35 -6 -48 -3 -23 6 -23 7 -7 20 22 16 16 16 50 3z
m-606 -76 c-20 -27 -24 -28 -44 -5 -15 16 -15 20 -1 40 15 21 16 21 38 5 22
-17 22 -19 7 -40z m110 46 c16 -8 18 -13 8 -25 -13 -16 -37 -18 -59 -4 -13 8
-12 11 5 24 24 19 22 18 46 5z m134 1 c-3 -5 -17 -10 -31 -10 -14 0 -22 4 -19
10 3 6 17 10 31 10 14 0 22 -4 19 -10z m295 0 c12 -8 9 -10 -12 -10 -15 0 -30
5 -33 10 -8 13 25 13 45 0z m135 -10 c17 -18 16 -19 -8 -25 -17 -5 -34 -1 -48
9 l-23 15 25 10 c33 13 34 13 54 -9z m104 -45 l-20 -20 -20 24 -20 25 22 17
c22 16 23 16 40 -5 17 -20 17 -22 -2 -41z m-871 -11 l-12 -25 -17 22 c-13 18
-15 28 -6 47 l11 24 18 -22 c14 -17 15 -26 6 -46z m962 26 c-1 -8 -7 -24 -15
-34 -14 -18 -15 -18 -25 9 -9 22 -7 31 6 47 19 20 34 10 34 -22z m-1028 -32
c-9 -9 -12 -4 -11 23 0 32 1 33 11 11 8 -17 8 -26 0 -34z m341 33 c-27 -22
-71 -18 -52 5 6 8 26 14 43 14 l31 -1 -22 -18z m62 0 c-3 -6 -16 -11 -28 -11
-21 1 -21 1 3 15 27 14 36 13 25 -4z m282 -8 c-9 -8 -48 8 -42 18 4 5 14 5 26
-2 12 -6 18 -13 16 -16z m79 12 c10 -8 15 -15 9 -15 -5 -1 -18 -3 -27 -5 -9
-2 -24 6 -34 16 -16 18 -16 19 8 19 13 0 33 -7 44 -15z m295 -38 c-13 -13 -15
11 -4 40 7 16 8 15 11 -6 2 -13 -1 -28 -7 -34z m-843 27 c26 -7 27 -12 7 -38
-13 -17 -18 -18 -40 -8 -22 10 -24 15 -15 32 12 22 14 23 48 14z m666 -13 c17
-19 17 -20 -3 -30 -28 -15 -34 -14 -50 10 -11 18 -11 23 1 30 20 13 33 11 52
-10z m-459 -10 c-3 -6 -15 -16 -26 -22 -18 -9 -19 -9 -10 9 10 19 32 33 40 26
1 -1 0 -7 -4 -13z m230 -1 c10 -11 14 -20 8 -20 -5 0 -18 9 -28 20 -10 11 -14
20 -8 20 5 0 18 -9 28 -20z m317 -47 c-23 -18 -31 -16 -41 9 -6 17 -3 26 13
40 20 16 21 16 33 -10 10 -23 9 -29 -5 -39z m-852 42 c14 -17 4 -55 -14 -55
-21 0 -36 24 -29 48 6 25 25 29 43 7z m186 2 c2 -2 -2 -11 -9 -21 -8 -11 -23
-17 -40 -14 -26 3 -27 4 -12 25 13 19 47 24 61 10z m62 -9 c-9 -13 -25 -24
-37 -26 -39 -6 -18 30 24 41 11 2 22 5 24 6 2 0 -3 -9 -11 -21z m450 -6 c14
-21 13 -21 -46 -21 -47 1 -64 5 -78 20 -16 18 -16 19 10 19 15 0 29 -7 32 -15
4 -8 11 -15 16 -15 6 0 8 6 5 14 -4 9 1 17 11 19 25 7 34 3 50 -21z m-768 -39
c0 -13 -3 -23 -8 -23 -14 0 -31 38 -25 59 5 20 6 20 19 4 7 -10 14 -28 14 -40z
m403 37 c-3 -11 -14 -25 -25 -31 -22 -12 -19 0 10 34 19 22 21 22 15 -3z m583
-36 c-4 -13 -11 -24 -16 -24 -14 0 -12 36 3 60 10 17 13 18 15 5 2 -9 1 -27
-2 -41z m-406 26 c7 -13 7 -20 1 -20 -6 0 -15 9 -21 20 -7 13 -7 20 -1 20 6 0
15 -9 21 -20z m-32 -36 c-3 -14 -7 -10 -16 16 -12 32 -11 34 4 19 9 -9 14 -25
12 -35z m332 -7 c0 -4 -10 -12 -22 -16 -17 -7 -26 -5 -35 7 -19 23 -16 36 10
47 18 9 24 7 34 -10 7 -11 12 -24 13 -28z m-732 29 c1 -2 -2 -15 -7 -29 -8
-19 -15 -24 -31 -20 -26 7 -33 18 -25 44 6 17 12 19 33 14 15 -4 28 -8 30 -9z
m280 -12 c-7 -15 -14 -21 -16 -15 -5 16 5 41 17 41 7 0 6 -10 -1 -26z m33 -21
c-9 -16 -10 -15 -11 8 0 14 3 29 8 33 12 12 14 -22 3 -41z m49 11 c0 -14 -4
-22 -10 -19 -5 3 -10 17 -10 31 0 14 4 22 10 19 6 -3 10 -17 10 -31z m138 8
c16 -21 15 -32 -2 -32 -14 0 -46 36 -46 52 0 11 33 -3 48 -20z m-298 3 c0 -12
-28 -35 -44 -35 -11 0 -6 26 6 38 17 17 38 15 38 -3z m-135 -5 c10 -16 -14
-50 -35 -50 -25 0 -33 15 -20 40 11 21 44 27 55 10z m68 -19 c-4 -17 -49 -38
-59 -28 -9 9 10 39 30 47 27 10 35 5 29 -19z m446 -7 c9 -21 8 -24 -9 -24 -21
0 -50 25 -50 44 0 22 47 6 59 -20z m71 16 c14 -26 5 -40 -25 -40 -28 0 -45 37
-24 51 22 14 38 10 49 -11z m148 -6 c2 -30 -13 -54 -34 -54 -23 0 -16 46 9 63
12 9 22 16 22 16 0 1 2 -11 3 -25z m-907 6 c21 -12 24 -27 10 -49 -13 -21 -41
4 -41 35 0 27 3 28 31 14z m339 -46 c-7 -7 -16 -14 -21 -14 -15 0 -10 32 9 53
17 19 17 19 20 -2 2 -12 -2 -29 -8 -37z m225 15 c4 -11 4 -23 1 -26 -10 -10
-34 16 -38 42 -4 21 -2 23 13 15 10 -6 21 -19 24 -31z m-147 -66 c10 -18 10
-27 0 -43 -7 -11 -16 -20 -20 -20 -14 0 -21 51 -9 63 16 16 14 32 -3 18 -21
-17 -28 33 -7 54 15 14 16 13 22 -17 3 -18 11 -43 17 -55z m92 35 c0 -26 -2
-29 -15 -18 -8 7 -15 26 -15 42 0 26 2 29 15 18 8 -7 15 -26 15 -42z m-557 -1
c-7 -11 -23 12 -23 33 1 12 4 11 15 -4 8 -10 12 -23 8 -29z m130 -12 c-6 -29
-11 -30 -39 -10 -15 10 -20 22 -17 39 5 24 6 25 33 11 22 -11 26 -19 23 -40z
m367 35 c8 -14 7 -26 -1 -42 l-12 -22 -8 21 c-7 19 -2 63 7 63 2 0 8 -9 14
-20z m400 -15 c0 -24 -35 -53 -48 -40 -17 16 -11 51 10 61 29 13 38 8 38 -21z
m86 -2 c-13 -24 -15 -25 -16 -7 0 11 5 25 12 32 19 19 21 6 4 -25z m-645 0
c-9 -33 -51 -52 -51 -23 0 22 25 50 45 50 9 0 11 -7 6 -27z m341 3 c23 -34 -3
-55 -32 -26 -28 28 -27 53 3 44 12 -4 25 -12 29 -18z m-477 -26 c0 -19 -6 -26
-24 -28 -27 -4 -41 12 -33 40 3 14 12 18 31 16 20 -2 26 -8 26 -28z m72 3 c-2
-22 -8 -29 -30 -31 -23 -3 -27 0 -27 21 0 30 7 37 36 37 19 0 22 -5 21 -27z
m467 21 c9 -4 16 -18 16 -34 0 -26 -2 -28 -27 -21 -21 5 -29 15 -31 34 -3 28
9 34 42 21z m86 -24 c0 -26 -4 -30 -28 -30 -23 0 -28 5 -30 28 -2 24 2 28 28
30 27 2 30 0 30 -28z m-768 -25 c3 -14 3 -25 0 -25 -14 0 -42 35 -42 52 0 28
36 5 42 -27z m332 -16 c-24 -27 -34 -24 -34 11 0 38 31 59 43 28 5 -14 2 -27
-9 -39z m209 47 c17 -13 24 -66 9 -66 -17 0 -41 36 -39 58 2 25 5 26 30 8z
m343 -31 c-9 -14 -21 -25 -26 -25 -15 0 -2 41 17 55 24 18 29 1 9 -30z m-401
-23 c-3 -8 -5 -18 -5 -23 0 -18 -21 -8 -32 16 -8 19 -8 28 3 41 12 14 14 14
26 -2 7 -10 11 -25 8 -32z m-424 18 c5 0 9 -13 9 -30 0 -26 -2 -28 -22 -21
-15 5 -24 18 -26 36 -3 22 0 27 13 21 9 -3 21 -6 26 -6z m223 -12 c4 -15 0
-27 -11 -36 -24 -17 -37 -10 -41 20 -3 25 3 30 39 37 4 0 9 -9 13 -21z m330 9
c19 -14 19 -48 1 -54 -22 -7 -48 23 -41 45 8 25 15 27 40 9z m226 -6 c0 -17
-34 -51 -50 -51 -14 0 3 59 19 63 29 8 31 7 31 -12z m-704 -14 c12 -7 14 -47
2 -47 -5 0 -16 0 -27 0 -13 0 -20 9 -23 30 -4 26 -2 30 16 27 12 -1 26 -6 32
-10z m81 -19 c3 -21 -1 -27 -22 -30 -30 -6 -35 -2 -35 28 0 13 7 24 18 27 28
7 35 2 39 -25z m481 17 c3 -2 2 -15 -2 -29 -4 -16 -12 -23 -23 -21 -10 2 -21
4 -25 4 -5 1 -8 14 -8 30 0 27 3 29 27 25 15 -3 29 -7 31 -9z m74 -15 c-4 -29
-7 -31 -49 -30 -5 0 -8 10 -8 23 -1 20 9 26 56 36 3 0 4 -12 1 -29z m-408 -6
c4 -15 6 -27 4 -29 -17 -14 -90 -55 -98 -55 -6 0 -15 10 -19 23 -7 16 -5 25 7
35 21 16 42 15 42 -2 0 -8 5 -18 11 -22 9 -5 10 1 5 21 -5 20 -2 31 11 41 25
19 30 17 37 -12z m170 11 c17 -13 18 -18 8 -40 -10 -22 -15 -24 -32 -15 -21
11 -25 27 -14 54 7 19 13 20 38 1z m-516 -30 c9 -19 8 -23 -2 -19 -7 3 -18 16
-24 29 -9 19 -8 23 2 19 7 -3 18 -16 24 -29z m433 -24 c-15 -26 -27 -27 -41
-1 -8 14 -7 25 2 40 12 19 13 19 31 1 16 -15 17 -22 8 -40z m419 40 c-14 -27
-30 -36 -30 -17 0 8 8 20 18 25 23 14 24 14 12 -8z m-276 -21 c23 -8 25 -12
14 -35 -12 -28 -20 -30 -48 -15 -17 9 -18 14 -8 35 13 29 10 28 42 15z m224
-12 c-19 -28 -58 -55 -58 -39 0 15 46 61 61 61 8 0 7 -7 -3 -22z m-740 0 c14
-14 16 -38 3 -38 -5 0 -17 7 -25 16 -9 8 -16 20 -16 25 0 13 24 11 38 -3z m80
-26 c17 -22 15 -32 -5 -32 -25 0 -39 11 -47 37 -6 18 -4 21 16 16 13 -3 29
-13 36 -21z m76 6 c9 -35 8 -38 -19 -38 -14 0 -29 8 -35 19 -13 26 -13 29 8
34 33 9 40 7 46 -15z m164 -41 c-21 -17 -22 -17 -42 3 l-21 21 23 20 c24 19
24 19 43 -4 18 -22 18 -22 -3 -40z m120 27 c1 -1 -5 -11 -15 -23 -17 -20 -19
-21 -41 -6 -21 16 -21 17 -5 40 17 22 19 22 38 7 11 -9 21 -17 23 -18z m168
22 c1 -1 -2 -11 -7 -23 -10 -26 -59 -33 -59 -9 0 34 12 46 39 40 14 -4 27 -7
27 -8z m62 -18 c-19 -28 -64 -39 -54 -13 3 9 6 21 6 26 0 5 14 9 31 9 30 0 31
-1 17 -22z m-168 -42 c0 -20 -34 -34 -58 -25 -23 9 -23 9 -5 33 15 19 22 22
40 13 13 -6 23 -15 23 -21z m-242 12 c18 -18 14 -35 -10 -42 -17 -4 -28 0 -41
16 -18 21 -18 22 0 29 27 11 38 10 51 -3z m-224 -14 c9 -8 16 -18 16 -20 0 -7
-38 15 -45 26 -10 16 12 12 29 -6z m340 -3 c16 -18 16 -20 -6 -35 -21 -15 -24
-15 -42 4 -20 20 -20 20 -1 35 26 19 29 19 49 -4z m321 9 c-7 -11 -45 -33 -45
-26 0 2 7 12 16 20 17 18 39 22 29 6z m-580 -27 c12 -15 11 -19 -1 -21 -16 -4
-54 24 -54 39 0 14 42 0 55 -18z m71 9 c19 -25 17 -32 -9 -32 -24 0 -47 17
-47 35 0 18 42 15 56 -3z m384 3 c0 -19 -23 -35 -52 -35 -28 0 -28 0 -12 25
16 25 64 32 64 10z m51 -17 c-29 -22 -53 -24 -44 -2 7 18 43 35 57 26 5 -3 -1
-13 -13 -24z m-303 -21 c11 -8 11 -12 0 -18 -21 -14 -54 -10 -68 6 -10 12 -8
16 11 24 24 9 32 7 57 -12z m116 11 c26 -11 26 -11 5 -26 -12 -8 -30 -11 -46
-7 -24 6 -25 7 -8 25 21 24 18 23 49 8z m-268 -39 c3 -5 1 -9 -5 -9 -17 0 -41
12 -41 20 0 10 38 1 46 -11z m73 7 c9 -11 8 -15 -4 -20 -16 -6 -55 13 -55 26
0 14 47 9 59 -6z m268 -5 c-16 -10 -38 -16 -48 -14 -19 5 -19 6 -2 19 10 7 32
13 48 14 l30 0 -28 -19z m67 2 c-10 -7 -25 -13 -33 -13 -14 1 -14 2 1 14 10 7
25 13 34 13 15 0 15 -2 -2 -14z m-200 -9 c9 -3 13 -10 10 -15 -3 -5 10 -7 30
-5 23 3 34 1 30 -6 -4 -6 -27 -7 -63 -3 -65 8 -79 14 -60 26 17 10 32 11 53 3z
m-79 -24 c17 -7 15 -9 -12 -9 -18 -1 -33 4 -33 9 0 12 17 12 45 0z"/>
</g>
</svg>
